# xmcd
#
# Track frame offsets:
# 150
# 13917
# 23976
# 43143
# 62570
# 82155
# 88147
# 104194
# 118743
# 132585
# 150355
#
# Disc length: 2225 seconds
#
# Revision: 0
# Processed by: cddbd v1.4PL0 Copyright (c) Steve Scherf et al.
# Submitted via: Axialis_AX_CDPlayer 2.6
#
DISCID=9b08af0b
DTITLE=Horton, Big Walter - Fine Cuts
DYEAR=1900
DGENRE=
TTITLE0=Everybody's Fishin'
TTITLE1=Don't Get Around Much Any More
TTITLE2=Relaxin'
TTITLE3=We Gonna Move To Kansas City
TTITLE4=Walter's Swing
TTITLE5=Hobo Blues
TTITLE6=Stop Clowniin'
TTITLE7=Need My Baby
TTITLE8=La Cucaracha
TTITLE9=Worried Life
TTITLE10=Put The Kettle On
EXTD=
EXTT0=
EXTT1=
EXTT2=
EXTT3=
EXTT4=
EXTT5=
EXTT6=
EXTT7=
EXTT8=
EXTT9=
EXTT10=
PLAYORDER=
